<?xml version="1.0" standalone="no"?>
<!DOCTYPE svg PUBLIC "-//W3C//DTD SVG 20010904//EN"
 "http://www.w3.org/TR/2001/REC-SVG-20010904/DTD/svg10.dtd">
<svg version="1.0" xmlns="http://www.w3.org/2000/svg"
 width="395.000000pt" height="174.000000pt" viewBox="0 0 395.000000 174.000000"
 preserveAspectRatio="xMidYMid meet">

<g transform="translate(0.000000,174.000000) scale(0.100000,-0.100000)"
fill="#000000" stroke="none">
<path d="M1208 1733 c6 -2 18 -2 25 0 6 3 1 5 -13 5 -14 0 -19 -2 -12 -5z"/>
<path d="M2033 1733 c93 -2 241 -2 330 0 89 1 14 3 -168 3 -181 0 -254 -2
-162 -3z"/>
<path d="M1128 1723 c7 -3 16 -2 19 1 4 3 -2 6 -13 5 -11 0 -14 -3 -6 -6z"/>
<path d="M2743 1723 c9 -2 23 -2 30 0 6 3 -1 5 -18 5 -16 0 -22 -2 -12 -5z"/>
<path d="M1140 1710 c-88 -12 -219 -49 -274 -77 -28 -14 -112 -76 -186 -138
-203 -168 -399 -325 -405 -325 -4 0 -3 6 1 13 4 7 3 9 -2 4 -5 -5 -9 -12 -9
-16 0 -4 -37 -43 -81 -87 -93 -90 -138 -167 -159 -273 -9 -43 -15 -159 -17
-336 -2 -269 -2 -270 22 -318 25 -51 76 -98 126 -118 39 -15 158 -17 1694 -24
718 -3 1420 -8 1561 -11 141 -4 280 -3 308 1 75 10 139 56 173 125 l27 55 3
290 c3 317 2 326 -57 450 -23 48 -53 89 -97 132 -121 119 -613 533 -669 563
-81 43 -250 81 -399 89 -173 10 -1492 11 -1560 1z m1290 -28 c0 -4 -285 -8
-632 -7 -622 0 -635 0 -733 -23 -132 -30 -208 -66 -307 -150 -46 -37 -190
-152 -320 -255 -243 -193 -277 -226 -321 -312 -48 -95 -55 -145 -62 -406 -6
-271 -1 -315 43 -369 l27 -32 -3 119 -4 119 32 34 31 33 502 -6 c276 -4 972
-9 1547 -12 1132 -6 1486 -10 1511 -20 37 -14 51 -65 48 -172 -4 -96 -6 -104
-31 -130 l-27 -27 -208 2 c-114 1 -338 2 -498 2 -159 1 -306 5 -325 10 -20 5
186 6 496 3 l530 -6 22 28 c20 25 22 40 22 135 0 164 71 147 -645 154 -330 3
-1130 9 -1777 12 l-1176 7 -21 -34 c-17 -27 -21 -51 -21 -115 0 -90 13 -140
40 -154 11 -6 185 -10 442 -10 234 0 429 -4 437 -9 9 -6 -159 -7 -420 -5 -273
3 -428 2 -419 -4 22 -14 414 -22 1158 -23 358 -1 652 -4 652 -8 0 -4 -395 -6
-877 -3 -711 3 -888 6 -928 17 -63 18 -126 71 -155 130 -21 43 -21 54 -18 322
3 271 4 280 30 349 34 93 85 172 140 217 227 187 632 504 668 522 56 29 130
50 235 69 63 11 210 14 698 15 339 1 617 -3 617 -7z m415 -17 c104 -18 170
-38 238 -72 49 -24 555 -439 659 -541 63 -61 107 -135 134 -227 16 -53 18 -94
16 -334 -3 -308 -6 -325 -77 -394 -71 -69 -35 -66 -920 -60 -437 4 -793 8
-791 11 5 4 1416 2 1501 -3 85 -5 139 12 193 60 76 68 82 98 82 394 0 265 -6
312 -55 416 -37 77 -87 128 -283 292 -98 81 -230 192 -295 246 -140 118 -175
138 -287 170 -110 32 -234 47 -393 47 -94 0 -126 3 -121 12 9 15 278 4 399
-17z m-1390 -40 c189 -50 370 -230 420 -420 18 -70 21 -223 4 -292 -21 -89
-84 -206 -146 -270 -119 -123 -248 -183 -413 -191 -125 -5 -197 10 -310 65
-92 44 -209 157 -257 248 -125 238 -83 515 107 705 151 151 381 211 595 155z
m745 -55 l0 -70 -207 2 -208 3 -3 68 -3 67 211 0 210 0 0 -70z m587 54 c291
-60 500 -329 479 -616 -6 -85 -39 -196 -81 -270 -68 -121 -206 -229 -352 -274
-75 -24 -95 -26 -196 -22 -94 4 -124 10 -189 35 -240 95 -390 310 -389 558 1
109 19 185 68 278 127 240 394 366 660 311z m-734 -164 c4 0 7 -29 7 -65 l0
-65 -75 0 -75 0 0 63 c0 35 2 66 5 69 3 2 33 3 67 2 35 -2 66 -3 71 -4z
m-1624 -444 c98 -10 194 -89 227 -189 21 -62 15 -147 -15 -205 -21 -40 -40
-59 -27 -26 3 9 2 12 -5 9 -5 -4 -7 -15 -4 -25 4 -13 -6 -28 -38 -54 l-44 -36
-146 0 -145 0 -44 33 c-50 38 -95 120 -104 188 -8 62 16 143 60 201 42 55 154
117 201 112 17 -2 54 -5 84 -8z m3234 -32 c136 -46 215 -203 173 -346 -17 -58
-52 -112 -67 -103 -5 4 -7 0 -4 -7 2 -7 -11 -25 -30 -39 -29 -22 -44 -26 -87
-24 -29 1 -95 3 -146 4 l-92 1 -44 40 c-129 119 -117 337 24 435 80 55 182 70
273 39z m-1633 -254 l0 -71 -75 2 -75 2 0 62 c0 34 3 65 7 68 3 4 37 7 75 7
l68 0 0 -70z m-1241 -136 c12 -15 21 -32 21 -39 0 -25 -41 -65 -68 -65 -33 0
-72 36 -72 67 0 59 82 84 119 37z m1381 -45 l0 -70 -187 2 c-104 0 -198 3
-210 6 -21 5 -23 11 -23 69 l0 64 210 0 210 0 0 -71z m1062 34 c39 -35 10
-113 -42 -113 -57 0 -91 71 -53 112 20 22 70 23 95 1z m-202 -219 c11 -11 15
-39 15 -118 0 -90 -3 -107 -20 -126 l-20 -22 -1045 7 -1045 6 -23 26 c-22 24
-24 33 -20 123 2 66 8 103 18 115 13 16 70 17 1070 10 899 -6 1057 -9 1070
-21z m-2262 -118 l3 -66 -281 0 -280 0 0 63 c0 35 3 67 8 71 4 5 129 6 277 3
l270 -5 3 -66z m2910 -19 l3 -67 -273 2 -273 3 -3 68 -3 68 273 -3 273 -3 3
-68z m-1748 -138 c682 -3 695 -4 280 -9 -580 -7 -1140 -2 -1140 10 0 5 31 8
73 5 39 -2 394 -5 787 -6z m147 -35 c-3 -3 -12 -4 -19 -1 -8 3 -5 6 6 6 11 1
17 -2 13 -5z"/>
<path d="M1130 1611 c-320 -87 -506 -425 -406 -737 51 -159 159 -284 307 -354
406 -192 872 117 846 560 -3 47 -10 96 -16 110 l-12 25 6 -25 c3 -14 8 -61 11
-105 20 -285 -179 -540 -466 -601 -246 -52 -515 79 -630 305 -44 89 -60 156
-60 255 0 165 50 287 164 401 81 81 163 129 270 156 228 59 475 -27 612 -214
57 -77 64 -84 33 -31 -72 123 -205 219 -356 258 -80 21 -220 20 -303 -3z"/>
<path d="M1197 1600 c-254 -43 -452 -254 -474 -504 -18 -218 101 -438 294
-539 92 -48 169 -67 271 -67 161 0 282 50 398 165 114 113 164 236 164 405 0
154 -52 275 -166 386 -126 125 -311 183 -487 154z m154 -475 c14 -13 21 -14
43 -3 23 10 29 9 37 -3 13 -21 11 -25 -15 -37 -14 -6 -26 -22 -29 -40 -3 -16
-17 -43 -30 -58 -30 -35 -93 -40 -126 -10 -21 19 -23 18 -191 -52 -190 -81
-195 -82 -195 -64 0 7 76 48 170 91 161 73 170 79 176 110 16 78 105 115 160
66z"/>
<path d="M1236 1109 c-15 -12 -26 -30 -26 -45 0 -13 2 -24 4 -24 2 0 34 14 71
32 62 28 66 32 49 45 -26 19 -67 16 -98 -8z"/>
<path d="M1197 1018 c-108 -50 -196 -93 -194 -95 5 -4 399 166 412 178 24 24
-35 1 -218 -83z"/>
<path d="M1295 1033 c-72 -30 -71 -29 -55 -48 7 -9 29 -15 50 -15 30 0 43 6
59 26 20 26 29 65 14 63 -5 0 -35 -12 -68 -26z"/>
<path d="M1810 1306 c0 -10 40 -90 40 -80 0 15 -29 84 -35 84 -3 0 -5 -2 -5
-4z"/>
<path d="M1800 1570 l0 -50 54 0 54 0 4 46 c2 25 1 47 -1 50 -2 2 -28 4 -58 4
l-53 0 0 -50z"/>
<path d="M1930 1570 l0 -50 60 0 60 0 0 50 0 50 -60 0 -60 0 0 -50z"/>
<path d="M2066 1593 c-3 -16 -4 -39 -3 -52 2 -22 7 -24 60 -26 l57 -3 0 32 c0
17 3 41 6 54 6 21 4 22 -54 22 -58 0 -61 -1 -66 -27z"/>
<path d="M2500 1599 c-98 -25 -170 -69 -256 -155 -137 -136 -197 -325 -163
-508 62 -335 395 -550 723 -466 110 28 190 74 272 156 78 77 151 204 159 279
l5 40 -14 -47 c-28 -96 -73 -175 -141 -247 -145 -154 -341 -218 -535 -177
-237 50 -408 223 -457 462 -49 238 79 496 301 608 93 47 172 66 271 66 160 0
290 -53 401 -164 120 -121 163 -217 174 -391 l7 -110 1 89 c3 141 -34 250
-124 367 -139 182 -387 260 -624 198z"/>
<path d="M2540 1585 c-186 -42 -346 -182 -411 -360 -18 -48 -22 -83 -23 -180
-1 -127 10 -176 61 -278 20 -41 27 -47 46 -41 12 3 50 15 84 26 l62 20 48 -26
c77 -41 132 -57 223 -63 103 -6 182 7 260 45 l58 28 83 -28 c64 -22 85 -25 91
-15 153 226 138 502 -39 696 -70 78 -155 135 -242 161 -87 27 -218 34 -301 15z
m176 -464 c22 -13 35 -16 48 -9 9 5 24 7 32 4 22 -8 17 -32 -11 -44 -15 -7
-25 -20 -25 -32 0 -41 -29 -79 -69 -91 -34 -10 -43 -9 -77 10 l-39 22 -174
-76 c-115 -49 -178 -72 -185 -65 -5 5 -8 12 -5 14 2 2 84 41 181 86 98 46 175
86 173 90 -11 17 20 73 49 91 39 24 63 24 102 0z"/>
<path d="M2605 1094 c-21 -22 -35 -64 -21 -64 2 0 33 14 70 30 57 26 66 33 56
45 -21 25 -78 19 -105 -11z"/>
<path d="M2700 1067 c-36 -18 -114 -54 -173 -81 -59 -27 -106 -50 -104 -52 4
-4 350 145 362 157 19 18 -21 7 -85 -24z"/>
<path d="M2720 1042 c-8 -3 -40 -16 -70 -29 -52 -23 -54 -25 -36 -39 30 -22
79 -18 103 9 36 40 38 71 3 59z"/>
<path d="M2374 914 c-18 -14 -18 -14 6 -3 31 14 36 19 24 19 -6 0 -19 -7 -30
-16z"/>
<path d="M2273 728 c-35 -11 -63 -23 -63 -28 0 -19 138 -133 194 -160 166 -81
356 -81 517 0 62 32 185 139 172 150 -4 4 -39 17 -77 28 -68 20 -70 20 -105 2
-71 -36 -153 -54 -246 -53 -99 0 -155 12 -229 49 l-49 24 -54 -30 c-30 -17
-60 -29 -66 -27 -7 2 3 13 21 23 83 47 79 52 -15 22z"/>
<path d="M1924 1426 c-3 -13 -4 -37 -2 -52 3 -28 5 -29 58 -29 l55 0 3 53 3
52 -55 0 c-50 0 -56 -2 -62 -24z"/>
<path d="M287 996 c-61 -22 -114 -64 -149 -119 -29 -45 -33 -60 -35 -127 l-1
-75 7 75 c8 84 17 104 69 162 50 55 103 79 192 88 l75 7 -60 1 c-33 1 -77 -5
-98 -12z"/>
<path d="M313 980 c-51 -12 -121 -58 -148 -98 -23 -34 -24 -37 -7 -43 11 -4
53 -39 95 -78 70 -64 79 -70 116 -68 54 2 77 -22 84 -90 6 -48 -4 -76 -17 -54
-3 5 -23 7 -45 4 -51 -7 -81 21 -81 75 0 34 -8 46 -85 122 -46 46 -88 80 -92
76 -4 -4 -8 -42 -8 -84 0 -66 4 -84 28 -124 15 -26 42 -59 61 -73 31 -24 39
-25 162 -25 129 0 130 0 166 30 76 63 111 196 74 284 -47 112 -179 176 -303
146z"/>
<path d="M521 961 c25 -15 58 -44 73 -62 15 -19 23 -25 18 -14 -17 33 -103
105 -126 105 -6 0 10 -13 35 -29z"/>
<path d="M636 815 c8 -37 14 -45 14 -19 0 10 -5 26 -10 34 -8 11 -9 7 -4 -15z"/>
<path d="M641 688 c0 -9 -4 -25 -7 -35 -5 -17 -5 -17 6 0 6 10 9 25 7 35 -4
15 -5 15 -6 0z"/>
<path d="M360 671 c0 -5 17 -24 38 -42 36 -32 37 -32 40 -10 2 12 -4 31 -14
42 -17 19 -64 27 -64 10z"/>
<path d="M111 662 c-1 -14 27 -72 35 -72 2 0 -2 12 -9 28 -8 15 -17 34 -20 42
-4 10 -6 11 -6 2z"/>
<path d="M320 627 c0 -32 32 -67 60 -67 21 0 27 15 10 25 -5 3 -10 11 -10 17
0 7 14 -1 30 -17 17 -16 30 -24 30 -18 0 14 -66 64 -74 56 -3 -3 -15 2 -26 12
-20 18 -20 17 -20 -8z"/>
<path d="M529 519 l-24 -20 28 17 c15 9 27 18 27 20 0 8 -8 4 -31 -17z"/>
<path d="M210 526 c0 -2 8 -10 18 -17 15 -13 16 -12 3 4 -13 16 -21 21 -21 13z"/>
<path d="M288 503 c6 -2 18 -2 25 0 6 3 1 5 -13 5 -14 0 -19 -2 -12 -5z"/>
<path d="M383 503 c9 -2 25 -2 35 0 9 3 1 5 -18 5 -19 0 -27 -2 -17 -5z"/>
<path d="M3548 983 c12 -2 30 -2 40 0 9 3 -1 5 -23 4 -22 0 -30 -2 -17 -4z"/>
<path d="M3498 956 c-53 -14 -106 -51 -143 -100 -28 -37 -31 -48 -12 -41 6 3
50 -31 97 -74 79 -73 87 -78 121 -74 30 4 39 1 58 -23 13 -16 21 -39 19 -54
-1 -14 1 -31 5 -38 14 -22 -1 -29 -55 -26 -66 4 -103 38 -93 85 6 26 -1 36
-77 109 -46 44 -86 80 -90 80 -11 0 -21 -88 -13 -127 10 -54 39 -106 80 -141
l36 -32 131 0 131 0 47 48 c52 52 70 97 70 177 -1 158 -156 273 -312 231z"/>
<path d="M3380 913 c-23 -20 -46 -46 -51 -57 -6 -12 1 -7 16 11 14 18 40 44
58 57 18 14 29 26 25 26 -5 0 -26 -16 -48 -37z"/>
<path d="M3750 905 c13 -14 26 -25 28 -25 3 0 -5 11 -18 25 -13 14 -26 25 -28
25 -3 0 5 -11 18 -25z"/>
<path d="M3301 799 c-6 -18 -10 -46 -10 -63 1 -28 2 -27 8 9 4 22 11 50 15 63
4 12 5 22 3 22 -3 0 -10 -14 -16 -31z"/>
<path d="M3822 770 c0 -14 2 -19 5 -12 2 6 2 18 0 25 -3 6 -5 1 -5 -13z"/>
<path d="M3291 674 c0 -11 3 -14 6 -6 3 7 2 16 -1 19 -3 4 -6 -2 -5 -13z"/>
<path d="M3813 640 c-5 -22 -7 -37 -2 -35 9 6 23 64 17 70 -2 3 -9 -13 -15
-35z"/>
<path d="M3546 651 c-3 -4 12 -22 34 -40 l40 -32 0 25 c0 36 -58 73 -74 47z"/>
<path d="M3301 634 c0 -11 3 -14 6 -6 3 7 2 16 -1 19 -3 4 -6 -2 -5 -13z"/>
<path d="M3510 597 c0 -29 29 -57 58 -57 30 0 28 11 -11 48 -39 38 -47 40 -47
9z"/>
<path d="M3571 593 c0 -5 14 -19 32 -32 l32 -25 -29 32 c-31 33 -36 37 -35 25z"/>
<path d="M3330 571 c5 -11 15 -23 21 -27 6 -3 3 5 -6 20 -20 30 -30 35 -15 7z"/>
<path d="M3370 526 c0 -2 8 -10 18 -17 15 -13 16 -12 3 4 -13 16 -21 21 -21
13z"/>
<path d="M1900 730 l0 -50 60 0 60 0 0 50 0 50 -60 0 -60 0 0 -50z"/>
<path d="M1760 550 l0 -50 195 0 195 0 0 50 0 50 -195 0 -195 0 0 -50z"/>
<path d="M902 368 c-15 -18 -22 -174 -10 -209 19 -55 27 -29 30 96 2 69 0 125
-3 125 -4 0 -11 -6 -17 -12z"/>
<path d="M1295 250 c0 -128 0 -130 22 -130 20 0 21 3 13 26 -15 39 -12 175 4
207 14 26 14 27 -12 27 l-27 0 0 -130z"/>
<path d="M940 359 c0 -11 30 -14 155 -12 l155 2 0 -55 0 -56 -127 3 c-179 4
-181 5 -186 43 -2 17 -4 -9 -3 -59 l1 -90 55 0 55 0 3 48 3 47 100 0 99 0 0
-50 c0 -38 4 -50 15 -50 12 0 15 19 15 115 0 63 -3 115 -7 115 -278 12 -333
12 -333 -1z"/>
<path d="M2590 355 c9 -10 11 -48 9 -128 -4 -104 -2 -114 14 -113 15 1 17 15
20 129 l2 127 -29 0 c-24 0 -27 -2 -16 -15z"/>
<path d="M1344 347 c-2 -7 -3 -58 -2 -113 3 -98 3 -99 28 -101 14 -1 290 -3
613 -5 544 -3 590 -2 598 14 14 25 11 192 -3 206 -18 18 -1227 17 -1234 -1z
m724 -7 l482 0 0 -51 0 -51 -542 6 c-299 3 -564 6 -590 6 l-48 0 0 51 0 52
108 -6 c59 -4 324 -7 590 -7z m-10 -163 l3 -38 -123 3 c-110 3 -123 5 -122 21
1 9 2 26 3 37 1 20 6 21 119 18 l117 -3 3 -38z"/>
<path d="M2673 354 c-22 -5 -23 -9 -23 -118 l0 -113 170 -2 170 -2 0 115 c0
86 -3 116 -12 116 -7 0 -74 2 -148 5 -74 2 -145 1 -157 -1z m133 -80 c-3 -26
-6 -62 -6 -80 l0 -34 -55 0 -54 0 4 68 c2 37 4 73 5 80 0 8 18 12 56 12 l57 0
-7 -46z m144 -37 l0 -83 -52 2 -53 2 -3 81 -3 81 56 0 55 0 0 -83z"/>
<path d="M3005 245 c0 -63 3 -115 6 -115 14 0 19 34 19 115 0 81 -5 115 -19
115 -3 0 -6 -52 -6 -115z"/>
<path d="M232 248 l3 -53 55 0 55 0 3 53 3 52 -61 0 -61 0 3 -52z"/>
<path d="M362 248 l3 -53 57 -3 56 -3 4 56 3 55 -63 0 -63 0 3 -52z"/>
<path d="M500 245 l0 -55 128 2 127 3 3 53 3 52 -60 0 -61 0 0 -44 c0 -25 -4
-48 -10 -51 -6 -4 -10 13 -10 44 l0 51 -60 0 -60 0 0 -55z"/>
<path d="M3149 248 c0 -18 -2 -41 -4 -50 -3 -16 5 -18 56 -18 l59 0 0 50 0 50
-55 0 -55 0 -1 -32z"/>
<path d="M3280 231 c0 -45 2 -49 28 -53 15 -3 41 -5 57 -4 29 1 30 3 33 54 l3
52 -60 0 -61 0 0 -49z"/>
<path d="M3412 228 l3 -53 58 -3 57 -3 0 56 0 55 -61 0 -60 0 3 -52z"/>
<path d="M3550 225 l0 -55 55 0 55 0 0 55 0 55 -55 0 -55 0 0 -55z"/>
<path d="M2828 1713 c7 -3 16 -2 19 1 4 3 -2 6 -13 5 -11 0 -14 -3 -6 -6z"/>
<path d="M3110 1636 c0 -3 9 -10 20 -16 11 -6 20 -8 20 -6 0 3 -9 10 -20 16
-11 6 -20 8 -20 6z"/>
<path d="M3160 1606 c0 -2 8 -10 18 -17 15 -13 16 -12 3 4 -13 16 -21 21 -21
13z"/>
<path d="M719 1553 c-13 -16 -12 -17 4 -4 9 7 17 15 17 17 0 8 -8 3 -21 -13z"/>
<path d="M3245 1530 c10 -11 20 -20 23 -20 3 0 -3 9 -13 20 -10 11 -20 20 -23
20 -3 0 3 -9 13 -20z"/>
<path d="M664 1508 l-19 -23 23 19 c21 18 27 26 19 26 -2 0 -12 -10 -23 -22z"/>
<path d="M3310 1475 c13 -14 26 -25 28 -25 3 0 -5 11 -18 25 -13 14 -26 25
-28 25 -3 0 5 -11 18 -25z"/>
<path d="M604 1458 l-19 -23 23 19 c21 18 27 26 19 26 -2 0 -12 -10 -23 -22z"/>
<path d="M3370 1426 c0 -2 8 -10 18 -17 15 -13 16 -12 3 4 -13 16 -21 21 -21
13z"/>
<path d="M489 1363 c-13 -16 -12 -17 4 -4 9 7 17 15 17 17 0 8 -8 3 -21 -13z"/>
<path d="M3445 1360 c10 -11 20 -20 23 -20 3 0 -3 9 -13 20 -10 11 -20 20 -23
20 -3 0 3 -9 13 -20z"/>
<path d="M439 1323 c-13 -16 -12 -17 4 -4 9 7 17 15 17 17 0 8 -8 3 -21 -13z"/>
<path d="M389 1283 c-13 -16 -12 -17 4 -4 9 7 17 15 17 17 0 8 -8 3 -21 -13z"/>
<path d="M3580 1245 c13 -14 26 -25 28 -25 3 0 -5 11 -18 25 -13 14 -26 25
-28 25 -3 0 5 -11 18 -25z"/>
<path d="M3640 1196 c0 -2 8 -10 18 -17 15 -13 16 -12 3 4 -13 16 -21 21 -21
13z"/>
<path d="M224 1148 l-19 -23 23 19 c12 11 22 21 22 23 0 8 -8 2 -26 -19z"/>
<path d="M3720 1126 c0 -2 8 -10 18 -17 15 -13 16 -12 3 4 -13 16 -21 21 -21
13z"/>
<path d="M145 1078 l-40 -43 43 40 c23 21 42 40 42 42 0 8 -9 0 -45 -39z"/>
<path d="M3931 784 c0 -11 3 -14 6 -6 3 7 2 16 -1 19 -3 4 -6 -2 -5 -13z"/>
<path d="M3944 530 c0 -113 2 -159 3 -102 2 56 2 148 0 205 -1 56 -3 10 -3
-103z"/>
<path d="M3941 304 c0 -11 3 -14 6 -6 3 7 2 16 -1 19 -3 4 -6 -2 -5 -13z"/>
<path d="M3859 53 c-13 -16 -12 -17 4 -4 16 13 21 21 13 21 -2 0 -10 -8 -17
-17z"/>
<path d="M708 3 c6 -2 18 -2 25 0 6 3 1 5 -13 5 -14 0 -19 -2 -12 -5z"/>
<path d="M908 3 c72 -2 192 -2 265 0 72 1 13 3 -133 3 -146 0 -205 -2 -132 -3z"/>
</g>
</svg>
