<?xml version="1.0" standalone="no"?>
<!DOCTYPE svg PUBLIC "-//W3C//DTD SVG 20010904//EN"
 "http://www.w3.org/TR/2001/REC-SVG-20010904/DTD/svg10.dtd">
<svg version="1.0" xmlns="http://www.w3.org/2000/svg"
 width="395.000000pt" height="174.000000pt" viewBox="0 0 395.000000 174.000000"
 preserveAspectRatio="xMidYMid meet">

<g transform="translate(0.000000,174.000000) scale(0.100000,-0.100000)"
fill="#000000" stroke="none">
<path d="M1150 1725 c-99 -14 -251 -55 -300 -80 -31 -16 -55 -35 -334 -265
-103 -85 -225 -185 -269 -221 -104 -83 -149 -133 -186 -206 -56 -113 -61 -145
-59 -397 l2 -231 6 240 c5 145 12 256 20 280 43 138 109 213 360 414 85 69
216 175 290 236 156 129 199 154 341 192 l104 28 725 1 c399 0 781 -2 850 -6
150 -9 318 -47 399 -90 56 -30 548 -444 669 -563 44 -43 74 -84 97 -132 59
-124 60 -133 57 -450 l-3 -290 -27 -55 c-30 -61 -103 -119 -151 -121 -14 0
-20 -3 -13 -6 51 -20 146 47 186 132 26 54 26 54 26 337 0 343 -7 384 -95 524
-28 43 -244 241 -323 296 -12 8 -44 35 -70 59 -115 107 -294 254 -342 281 -65
36 -206 73 -330 86 -52 6 -419 13 -815 16 -574 4 -739 2 -815 -9z"/>
<path d="M1115 1674 c-105 -19 -179 -40 -235 -69 -36 -18 -441 -335 -668 -522
-55 -45 -106 -124 -140 -217 -26 -69 -27 -78 -30 -349 -3 -268 -3 -279 18
-322 29 -59 92 -112 155 -130 40 -11 217 -14 928 -17 482 -3 877 -1 877 3 0 4
-294 7 -652 8 -744 1 -1136 9 -1158 23 -9 6 146 7 419 4 261 -2 429 -1 420 5
-8 5 -203 9 -437 9 -257 0 -431 4 -442 10 -27 14 -40 64 -40 154 0 64 4 88 21
115 l21 34 1176 -7 c647 -3 1447 -9 1777 -12 716 -7 645 10 645 -154 0 -95 -2
-110 -22 -135 l-22 -28 -530 6 c-310 3 -516 2 -496 -3 19 -5 166 -9 325 -10
160 0 384 -1 498 -2 l208 -2 27 27 c25 26 27 34 31 130 3 107 -11 158 -48 172
-25 10 -379 14 -1511 20 -575 3 -1271 8 -1547 12 l-502 6 -31 -33 -32 -34 4
-119 3 -119 -27 32 c-44 54 -49 98 -43 369 7 261 14 311 62 406 44 86 78 119
321 312 130 103 274 218 320 255 99 84 175 120 307 150 98 23 111 23 733 23
347 -1 632 3 632 7 0 4 -278 8 -617 7 -488 -1 -635 -4 -698 -15z"/>
<path d="M2446 1682 c-5 -9 27 -12 121 -12 159 0 283 -15 393 -47 112 -32 147
-52 287 -170 65 -54 197 -165 295 -246 196 -164 246 -215 283 -292 49 -104 55
-151 55 -416 0 -296 -6 -326 -82 -394 -54 -48 -108 -65 -193 -60 -85 5 -1496
7 -1501 3 -2 -3 354 -7 791 -11 885 -6 849 -9 920 60 71 69 74 86 77 394 3
302 -2 334 -63 450 -39 73 -92 123 -421 397 -272 227 -324 263 -423 295 -126
41 -522 76 -539 49z"/>
<path d="M1198 1640 c-235 -42 -415 -194 -489 -413 -33 -95 -37 -224 -10 -322
32 -114 75 -189 161 -276 128 -130 272 -185 460 -177 165 8 294 68 413 191 62
64 125 181 146 270 17 69 14 222 -4 292 -50 190 -231 370 -420 420 -75 19
-195 27 -257 15z m235 -26 c151 -39 284 -135 356 -258 31 -53 24 -46 -33 31
-137 187 -384 273 -612 214 -203 -53 -366 -213 -419 -411 -20 -74 -19 -222 1
-291 57 -190 199 -338 381 -396 219 -69 430 -17 594 146 86 86 131 169 156
286 14 67 13 190 -2 255 l-6 25 12 -25 c20 -45 23 -188 5 -264 -88 -375 -488
-570 -835 -406 -294 139 -419 497 -274 785 55 108 158 211 268 268 106 54 286
73 408 41z m-28 -19 c104 -22 206 -76 279 -149 114 -111 166 -232 166 -386 0
-169 -50 -292 -164 -405 -116 -115 -237 -165 -398 -165 -102 0 -179 19 -271
67 -193 101 -312 321 -294 539 28 331 353 568 682 499z m430 -321 c22 -54 18
-66 -5 -15 -21 46 -23 51 -15 51 3 0 12 -16 20 -36z"/>
<path d="M1255 1141 c-31 -13 -57 -47 -64 -82 -6 -31 -15 -37 -176 -110 -94
-43 -170 -84 -170 -91 0 -18 5 -17 195 64 168 70 170 71 191 52 33 -30 96 -25
126 10 13 15 27 42 30 58 3 18 15 34 29 40 26 12 28 16 15 37 -8 12 -14 13
-37 3 -22 -11 -29 -10 -43 3 -22 19 -70 27 -96 16z m79 -24 c17 -13 13 -17
-49 -45 -37 -18 -69 -32 -71 -32 -2 0 -4 11 -4 24 0 50 81 84 124 53z m81 -16
c-13 -12 -407 -182 -412 -178 -2 2 86 45 194 95 183 84 242 107 218 83z m-45
-60 c0 -10 -9 -30 -21 -45 -16 -20 -29 -26 -59 -26 -32 0 -71 22 -59 34 5 5
122 54 132 55 4 1 7 -7 7 -18z"/>
<path d="M1782 1573 l3 -68 208 -3 207 -2 0 70 0 70 -210 0 -211 0 3 -67z
m129 43 c2 -3 3 -25 1 -50 l-4 -46 -54 0 -54 0 0 50 0 50 53 0 c30 0 56 -2 58
-4z m139 -46 l0 -50 -60 0 -60 0 0 50 0 50 60 0 60 0 0 -50z m136 28 c-3 -13
-6 -37 -6 -54 l0 -32 -57 3 c-53 2 -58 4 -60 26 -1 13 0 36 3 52 5 26 8 27 66
27 58 0 60 -1 54 -22z"/>
<path d="M2545 1626 c-131 -28 -237 -88 -327 -185 -177 -191 -210 -467 -83
-696 68 -123 174 -213 313 -268 65 -25 95 -31 189 -35 101 -4 121 -2 196 22
247 76 415 288 433 544 28 382 -340 697 -721 618z m281 -27 c130 -40 226 -104
298 -198 90 -117 127 -226 124 -367 l-1 -89 -7 110 c-11 174 -54 270 -174 391
-111 111 -241 164 -401 164 -236 0 -455 -145 -540 -357 -134 -335 67 -703 425
-779 291 -62 588 124 676 424 l14 47 -5 -40 c-2 -22 -23 -78 -46 -124 -51
-103 -152 -209 -246 -259 -356 -188 -789 20 -862 414 -23 121 -4 243 55 363
43 87 147 197 234 248 121 71 321 94 456 52z m15 -29 c87 -26 172 -83 242
-161 177 -194 192 -470 39 -696 -6 -10 -27 -7 -91 15 l-83 28 -58 -28 c-78
-38 -157 -51 -260 -45 -91 6 -146 22 -223 63 l-48 26 -62 -20 c-34 -11 -72
-23 -84 -26 -19 -6 -26 0 -46 41 -51 102 -62 151 -61 278 1 97 5 132 23 180
65 178 225 318 411 360 83 19 214 12 301 -15z m-503 -833 c-9 -7 -31 -20 -50
-31 -18 -10 -28 -21 -21 -23 6 -2 36 10 66 27 l54 30 49 -24 c74 -37 130 -49
229 -49 93 -1 175 17 246 53 35 18 37 18 105 -2 38 -11 73 -24 77 -28 13 -11
-110 -118 -172 -150 -161 -81 -351 -81 -517 0 -56 27 -194 141 -194 160 0 5
28 17 63 28 74 24 88 26 65 9z"/>
<path d="M2614 1121 c-29 -18 -60 -74 -49 -91 2 -4 -75 -44 -173 -90 -97 -45
-179 -84 -181 -86 -3 -2 0 -9 5 -14 7 -7 70 16 185 65 l174 76 39 -22 c34 -19
43 -20 77 -10 40 12 69 50 69 91 0 12 10 25 25 32 28 12 33 36 11 44 -8 3 -23
1 -32 -4 -13 -7 -26 -4 -48 9 -39 24 -63 24 -102 0z m96 -16 c10 -12 1 -19
-56 -45 -37 -16 -68 -30 -70 -30 -14 0 0 42 21 64 27 30 84 36 105 11z m75
-14 c-12 -12 -358 -161 -362 -157 -2 2 45 25 104 52 59 27 137 63 173 81 64
31 104 42 85 24z m-42 -69 c-20 -56 -85 -80 -129 -48 -18 14 -16 16 36 39 92
40 104 41 93 9z m-334 -96 c-2 -2 -15 -9 -29 -15 -24 -11 -24 -11 -6 3 16 13
49 24 35 12z"/>
<path d="M1915 1462 c-3 -3 -5 -34 -5 -69 l0 -63 75 0 75 0 0 65 c0 36 -3 65
-7 65 -5 1 -36 2 -71 4 -34 1 -64 0 -67 -2z m123 -64 l-3 -53 -55 0 c-53 0
-55 1 -58 29 -2 15 -1 39 2 52 6 22 12 24 62 24 l55 0 -3 -52z"/>
<path d="M247 993 c-112 -58 -178 -172 -163 -282 9 -68 54 -150 104 -188 l44
-33 145 0 146 0 44 36 c32 26 42 41 38 54 -3 10 -1 21 4 25 7 3 8 0 5 -9 -13
-33 6 -14 27 26 30 58 36 143 15 205 -33 100 -129 179 -227 189 -30 3 -67 6
-84 8 -20 2 -54 -9 -98 -31z m123 7 c-89 -9 -142 -33 -192 -88 -52 -58 -61
-78 -69 -162 l-7 -75 1 75 c2 67 6 82 35 127 56 87 142 133 247 131 l60 -1
-75 -7z m104 -30 c59 -23 118 -79 142 -136 37 -88 2 -221 -74 -284 -36 -30
-37 -30 -166 -30 -123 0 -131 1 -162 25 -19 14 -46 47 -61 73 -24 40 -28 58
-28 124 0 42 4 80 8 84 4 4 46 -30 92 -76 77 -76 85 -88 85 -122 0 -54 30 -82
81 -75 22 3 42 1 45 -4 13 -22 23 6 17 54 -7 68 -30 92 -84 90 -37 -2 -46 4
-116 68 -42 39 -84 74 -95 78 -44 16 71 121 155 141 56 14 105 10 161 -10z
m46 3 c39 -25 81 -66 92 -88 5 -11 -3 -5 -18 14 -15 18 -48 47 -73 62 -25 16
-41 29 -35 29 5 0 21 -7 34 -17z m130 -177 c0 -26 -6 -18 -14 19 -5 22 -4 26
4 15 5 -8 10 -24 10 -34z m-10 -143 c-11 -17 -11 -17 -6 0 3 10 7 26 7 35 1
15 2 15 6 0 2 -10 -1 -25 -7 -35z m-216 8 c10 -11 16 -30 14 -42 -3 -22 -4
-22 -40 10 -21 18 -38 37 -38 42 0 17 47 9 64 -10z m-287 -43 c7 -16 11 -28 9
-28 -8 0 -36 58 -35 72 0 9 2 8 6 -2 3 -8 12 -27 20 -42z m229 5 c8 8 74 -42
74 -56 0 -6 -13 2 -30 18 -16 16 -30 24 -30 17 0 -6 5 -14 10 -17 17 -10 11
-25 -10 -25 -28 0 -60 35 -60 67 0 25 0 26 20 8 11 -10 23 -15 26 -12z m194
-87 c0 -2 -12 -11 -27 -20 l-28 -17 24 20 c23 21 31 25 31 17z m-329 -23 c13
-16 12 -17 -3 -4 -10 7 -18 15 -18 17 0 8 8 3 21 -13z m82 -10 c-7 -2 -19 -2
-25 0 -7 3 -2 5 12 5 14 0 19 -2 13 -5z m105 0 c-10 -2 -26 -2 -35 0 -10 3 -2
5 17 5 19 0 27 -2 18 -5z"/>
<path d="M3467 986 c-119 -43 -193 -148 -191 -271 1 -79 34 -153 90 -205 l44
-40 92 -1 c51 -1 117 -3 146 -4 43 -2 58 2 87 24 19 14 32 32 30 39 -3 7 -1
11 4 7 15 -9 50 45 67 103 54 185 -82 363 -275 362 -31 -1 -73 -7 -94 -14z
m121 -3 c-10 -2 -28 -2 -40 0 -13 2 -5 4 17 4 22 1 32 -1 23 -4z m89 -45 c77
-36 132 -125 133 -213 0 -80 -18 -125 -70 -177 l-47 -48 -131 0 -131 0 -36 32
c-41 35 -70 87 -80 141 -8 39 2 127 13 127 4 0 44 -36 90 -80 76 -73 83 -83
77 -109 -10 -47 27 -81 93 -85 54 -3 69 4 55 26 -4 7 -6 24 -5 38 2 15 -6 38
-19 54 -19 24 -28 27 -58 23 -34 -4 -42 1 -121 74 -47 43 -91 77 -97 74 -19
-7 -16 4 12 41 80 105 206 137 322 82z m-274 -14 c-18 -13 -44 -39 -58 -57
-15 -18 -22 -23 -16 -11 11 22 86 94 99 94 4 0 -7 -12 -25 -26z m357 -19 c13
-14 21 -25 18 -25 -2 0 -15 11 -28 25 -13 14 -21 25 -18 25 2 0 15 -11 28 -25z
m-446 -97 c-4 -13 -11 -41 -15 -63 -6 -36 -7 -37 -8 -9 -1 30 16 94 26 94 2 0
1 -10 -3 -22z m513 -50 c-3 -7 -5 -2 -5 12 0 14 2 19 5 13 2 -7 2 -19 0 -25z
m-530 -90 c-3 -8 -6 -5 -6 6 -1 11 2 17 5 13 3 -3 4 -12 1 -19z m528 -27 c-4
-17 -10 -33 -14 -36 -5 -2 -3 13 2 35 13 46 22 46 12 1z m-227 3 c13 -9 22
-26 22 -40 l0 -25 -40 32 c-52 42 -36 71 18 33z m-291 -16 c-3 -8 -6 -5 -6 6
-1 11 2 17 5 13 3 -3 4 -12 1 -19z m250 -40 c39 -37 41 -48 11 -48 -29 0 -58
28 -58 57 0 31 8 29 47 -9z m49 -20 l29 -32 -32 25 c-18 13 -32 27 -32 32 -1
12 4 8 35 -25z m-261 -4 c9 -15 12 -23 6 -20 -11 7 -35 46 -28 46 3 0 12 -12
22 -26z m46 -51 c13 -16 12 -17 -3 -4 -10 7 -18 15 -18 17 0 8 8 3 21 -13z"/>
<path d="M1887 793 c-4 -3 -7 -34 -7 -68 l0 -62 75 -2 75 -2 0 71 0 70 -68 0
c-38 0 -72 -3 -75 -7z m133 -63 l0 -50 -60 0 -60 0 0 50 0 50 60 0 60 0 0 -50z"/>
<path d="M690 600 c-27 -27 -25 -62 3 -88 32 -30 71 -28 96 4 12 15 21 32 21
39 0 7 -9 24 -21 39 -25 32 -70 35 -99 6z"/>
<path d="M1750 556 c0 -58 2 -64 23 -69 12 -3 106 -6 210 -6 l187 -2 0 70 0
71 -210 0 -210 0 0 -64z m400 -6 l0 -50 -195 0 -195 0 0 50 0 50 195 0 195 0
0 -50z"/>
<path d="M3137 582 c-38 -41 -4 -112 53 -112 52 0 81 78 42 113 -25 22 -75 21
-95 -1z"/>
<path d="M890 375 c-10 -12 -16 -49 -18 -115 -4 -90 -2 -99 20 -123 l23 -26
1045 -6 1045 -7 20 22 c17 19 20 36 20 126 0 79 -4 107 -15 118 -13 12 -171
15 -1070 21 -1000 7 -1057 6 -1070 -10z m32 -120 c-3 -125 -11 -151 -30 -96
-20 57 0 221 27 221 3 0 5 -56 3 -125z m412 98 c-16 -32 -19 -168 -4 -207 8
-23 7 -26 -13 -26 -22 0 -22 2 -22 130 l0 130 27 0 c26 0 26 -1 12 -27z m-61
7 c4 0 7 -52 7 -115 0 -96 -3 -115 -15 -115 -11 0 -15 12 -15 50 l0 50 -99 0
-100 0 -3 -47 -3 -48 -55 0 -55 0 -1 90 c-1 50 1 76 3 59 5 -38 7 -39 186 -43
l127 -3 0 56 0 55 -155 -2 c-125 -2 -155 1 -155 12 0 13 55 13 333 1z m1360
-117 c-3 -114 -5 -128 -20 -129 -16 -1 -18 9 -14 113 2 80 0 118 -9 128 -11
13 -8 15 16 15 l29 0 -2 -127z m-55 105 c14 -14 17 -181 3 -206 -8 -16 -54
-17 -598 -14 -323 2 -599 4 -613 5 -25 2 -25 3 -28 101 -1 55 0 106 2 113 7
18 1216 19 1234 1z m400 2 c9 0 12 -30 12 -116 l0 -115 -170 2 -170 2 0 113
c0 134 -15 124 180 119 74 -3 141 -5 148 -5z m46 -6 c3 -9 6 -53 6 -99 0 -81
-5 -115 -19 -115 -3 0 -6 52 -6 115 0 109 5 135 19 99z"/>
<path d="M1370 301 l0 -51 48 0 c26 0 291 -3 590 -6 l542 -6 0 51 0 51 -482 0
c-266 0 -531 3 -590 7 l-108 6 0 -52z"/>
<path d="M1819 200 c-1 -11 -2 -28 -3 -37 -1 -16 12 -18 122 -21 l123 -3 -3
38 -3 38 -117 3 c-113 3 -118 2 -119 -18z"/>
<path d="M2700 308 c-1 -7 -3 -43 -5 -80 l-4 -68 54 0 55 0 0 34 c0 18 3 54 6
80 l7 46 -57 0 c-38 0 -56 -4 -56 -12z"/>
<path d="M2842 239 l3 -81 53 -2 52 -2 0 83 0 83 -55 0 -56 0 3 -81z"/>
<path d="M218 314 c-5 -4 -8 -36 -8 -71 l0 -63 280 0 281 0 -3 66 -3 66 -270
5 c-148 3 -273 2 -277 -3z m130 -66 l-3 -53 -55 0 -55 0 -3 53 -3 52 61 0 61
0 -3 -52z m134 -3 l-4 -56 -56 3 -57 3 -3 53 -3 52 63 0 63 0 -3 -55z m138 4
c0 -31 4 -48 10 -44 6 3 10 26 10 51 l0 44 61 0 60 0 -3 -52 -3 -53 -127 -3
-128 -2 0 55 0 55 60 0 60 0 0 -51z"/>
<path d="M3132 233 l3 -68 273 -3 273 -2 -3 67 -3 68 -273 3 -273 3 3 -68z
m128 -3 l0 -50 -59 0 c-51 0 -59 2 -56 18 2 9 4 32 4 50 l1 32 55 0 55 0 0
-50z m138 -2 c-3 -51 -4 -53 -33 -54 -16 -1 -42 1 -57 4 -26 4 -28 8 -28 53
l0 49 61 0 60 0 -3 -52z m132 -3 l0 -56 -57 3 -58 3 -3 53 -3 52 60 0 61 0 0
-55z m130 0 l0 -55 -55 0 -55 0 0 55 0 55 55 0 55 0 0 -55z"/>
<path d="M1 204 c-1 -37 45 -113 87 -143 75 -53 -9 -50 1705 -57 876 -4 1590
-5 1587 -2 -5 5 -1976 18 -2755 19 -396 0 -460 6 -517 45 -44 31 -81 83 -97
135 l-9 34 -1 -31z"/>
<path d="M1070 90 c0 -12 560 -17 1140 -10 415 5 402 6 -280 9 -393 1 -748 4
-787 6 -42 3 -73 0 -73 -5z"/>
<path d="M2058 53 c7 -3 16 -2 19 1 4 3 -2 6 -13 5 -11 0 -14 -3 -6 -6z"/>
</g>
</svg>
